<svg width="800" height="1100" version="1.1" xmlns="http://www.w3.org/2000/svg" xmlns:xlink="http://www.w3.org/1999/xlink">
<rect width="100%" height="100%" fill="white" />
<defs>
  <marker id="arrow" markerWidth="12" markerHeight="8"
          refX="11" refY="4" orient="auto">
    <path d="M 0 0 L 12 4 L 0 8 L 4 4 z" fill="black" />
  </marker>
  <marker id="sarrow" markerWidth="12" markerHeight="8"
          refX="1" refY="4" orient="auto">
    <path d="M 0 4 L 12 0 L 8 5 L 12 8 z" fill="black" />
  </marker>
  <marker id="arr" markerWidth="6" markerHeight="6"
          refX="5.5" refY="3" orient="auto">
    <path d="M 0 0 L 6 3 L 0 6 L 2 3 z" fill="black" />
  </marker>
  <marker id="sarr" markerWidth="6" markerHeight="6"
          refX="0.5" refY="3" orient="auto">
    <path d="M 0 3 L 6 0 L 4 3 L 6 6 z" fill="black" />
  </marker>
</defs>
<path d="M 270 300 L 221.213203435596 200" stroke-width="2" stroke="black" marker-end="url(#arrow)" />
<path id="L1" d="M 221.213203435596 200 L 270 300" stroke-width="0" stroke="none" fill="none" />
<path d="M 270 300 L 221.213203435596 300" stroke-width="2" stroke="black" marker-end="url(#arrow)" />
<path id="L2" d="M 221.213203435596 300 L 270 300" stroke-width="0" stroke="none" fill="none" />
<path d="M 270 300 L 221.213203435596 400" stroke-width="2" stroke="black" marker-end="url(#arrow)" />
<path id="L3" d="M 221.213203435596 400 L 270 300" stroke-width="0" stroke="none" fill="none" />
<path id="L4" d="M 430 200 L 578.786796564404 200" stroke-width="2" stroke="black" marker-end="url(#arrow)" />
<path id="L5" d="M 430 200 L 578.786796564404 300" stroke-width="2" stroke="black" marker-end="url(#arrow)" />
<text font-size="20" text-anchor="middle">
<textPath xlink:href="#L5" startOffset="50%">a</textPath>
</text>
<path id="L6" d="M 430 200 L 578.786796564404 400" stroke-width="2" stroke="black" marker-end="url(#arrow)" />
<text font-size="20" text-anchor="middle">
<textPath xlink:href="#L6" startOffset="50%">b</textPath>
</text>
<path id="L7" d="M 430 200 L 578.786796564404 500" stroke-width="2" stroke="black" marker-end="url(#arrow)" />
<text font-size="20" text-anchor="middle">
<textPath xlink:href="#L7" startOffset="50%">c</textPath>
</text>
<path id="L8" d="M 430 700 L 578.786796564404 600" stroke-width="2" stroke="black" marker-end="url(#arrow)" />
<path id="L9" d="M 430 700 L 578.786796564404 700" stroke-width="2" stroke="black" marker-end="url(#arrow)" />
<text font-size="20" text-anchor="middle">
<textPath xlink:href="#L9" startOffset="50%">a</textPath>
</text>
<path id="L10" d="M 430 700 L 578.786796564404 800" stroke-width="2" stroke="black" marker-end="url(#arrow)" />
<text font-size="20" text-anchor="middle">
<textPath xlink:href="#L10" startOffset="50%">b</textPath>
</text>
<path id="L11" d="M 430 700 L 578.786796564404 900" stroke-width="2" stroke="black" marker-end="url(#arrow)" />
<text font-size="20" text-anchor="middle">
<textPath xlink:href="#L11" startOffset="50%">c</textPath>
</text>
<path id="L12" d="M 321.213203435596 278.786796564404 L 378.786796564404 221.213203435596" stroke-width="2" stroke="black" marker-end="url(#arrow)" />
<path id="L13" d="M 300 330 L 400 670" stroke-width="2" stroke="black" marker-end="url(#arrow)" />
<path id="L14" d="M 400 230 L 400 670" stroke-width="2" stroke="black" marker-end="url(#arrow)" />
<path id="L15" d="M 621.213203435596 600 Q 821.213203435596 400 621.213203435596 200" stroke-width="2" stroke="black" fill="none" marker-start="url(#sarrow)" marker-end="url(#arrow)" />
<path id="L16" d="M 621.213203435596 500 Q 721.213203435596 400 621.213203435596 300" stroke-width="2" stroke="black" fill="none" marker-start="url(#sarrow)" marker-end="url(#arrow)" />
<path id="L17" d="M 621.213203435596 700 Q 821.213203435596 500 621.213203435596 300" stroke-width="2" stroke="black" fill="none" marker-start="url(#sarrow)" marker-end="url(#arrow)" />
<path id="L18" d="M 621.213203435596 800 Q 821.213203435596 600 621.213203435596 400" stroke-width="2" stroke="black" fill="none" marker-start="url(#sarrow)" marker-end="url(#arrow)" />
<path id="L19" d="M 621.213203435596 900 Q 821.213203435596 700 621.213203435596 500" stroke-width="2" stroke="black" fill="none" marker-start="url(#sarrow)" marker-end="url(#arrow)" />
<path id="L20" d="M 621.213203435596 900 Q 721.213203435596 800 621.213203435596 700" stroke-width="2" stroke="black" fill="none" marker-start="url(#sarrow)" marker-end="url(#arrow)" />
<circle cx="300" cy="300" r="30" stroke-width="2" stroke="black" fill="white"/>
<text x="300" y="300" fill="black" font-size="20" dominant-baseline="central" text-anchor="middle">ind<tspan dy="5" font-size="15">60</tspan></text>
<rect width="42.4264068711929" height="42.4264068711929" x="178.786796564404" y="178.786796564404" stroke-width="2" stroke="black" fill="white" />
<text x="200" y="200" fill="black" font-size="20" dominant-baseline="central" text-anchor="middle">x<tspan dy="5" font-size="15">1</tspan></text>
<rect width="42.4264068711929" height="42.4264068711929" x="178.786796564404" y="278.786796564404" stroke-width="2" stroke="black" fill="white" />
<text x="200" y="300" fill="black" font-size="20" dominant-baseline="central" text-anchor="middle">x<tspan dy="5" font-size="15">2</tspan></text>
<rect width="42.4264068711929" height="42.4264068711929" x="178.786796564404" y="378.786796564404" stroke-width="2" stroke="black" fill="white" />
<text x="200" y="400" fill="black" font-size="20" dominant-baseline="central" text-anchor="middle">x<tspan dy="5" font-size="15">3</tspan></text>
<circle cx="400" cy="200" r="30" stroke-width="2" stroke="black" fill="white"/>
<text x="400" y="200" fill="black" font-size="20" dominant-baseline="central" text-anchor="middle">dem<tspan dy="5" font-size="15">60</tspan></text>
<rect width="42.4264068711929" height="42.4264068711929" x="578.786796564404" y="178.786796564404" stroke-width="2" stroke="black" fill="white" />
<text x="600" y="200" fill="black" font-size="20" dominant-baseline="central" text-anchor="middle">y<tspan dy="5" font-size="15">1</tspan></text>
<rect width="42.4264068711929" height="42.4264068711929" x="578.786796564404" y="278.786796564404" stroke-width="2" stroke="black" fill="white" />
<text x="600" y="300" fill="black" font-size="20" dominant-baseline="central" text-anchor="middle">y<tspan dy="5" font-size="15">2</tspan></text>
<rect width="42.4264068711929" height="42.4264068711929" x="578.786796564404" y="378.786796564404" stroke-width="2" stroke="black" fill="white" />
<text x="600" y="400" fill="black" font-size="20" dominant-baseline="central" text-anchor="middle">y<tspan dy="5" font-size="15">3</tspan></text>
<rect width="42.4264068711929" height="42.4264068711929" x="578.786796564404" y="478.786796564404" stroke-width="2" stroke="black" fill="white" />
<text x="600" y="500" fill="black" font-size="20" dominant-baseline="central" text-anchor="middle">y<tspan dy="5" font-size="15">4</tspan></text>
<circle cx="400" cy="700" r="30" stroke-width="2" stroke="black" fill="white"/>
<text x="400" y="700" fill="black" font-size="20" dominant-baseline="central" text-anchor="middle">dem<tspan dy="5" font-size="15">65</tspan></text>
<rect width="42.4264068711929" height="42.4264068711929" x="578.786796564404" y="578.786796564404" stroke-width="2" stroke="black" fill="white" />
<text x="600" y="600" fill="black" font-size="20" dominant-baseline="central" text-anchor="middle">y<tspan dy="5" font-size="15">5</tspan></text>
<rect width="42.4264068711929" height="42.4264068711929" x="578.786796564404" y="678.786796564404" stroke-width="2" stroke="black" fill="white" />
<text x="600" y="700" fill="black" font-size="20" dominant-baseline="central" text-anchor="middle">y<tspan dy="5" font-size="15">6</tspan></text>
<rect width="42.4264068711929" height="42.4264068711929" x="578.786796564404" y="778.786796564404" stroke-width="2" stroke="black" fill="white" />
<text x="600" y="800" fill="black" font-size="20" dominant-baseline="central" text-anchor="middle">y<tspan dy="5" font-size="15">7</tspan></text>
<rect width="42.4264068711929" height="42.4264068711929" x="578.786796564404" y="878.786796564404" stroke-width="2" stroke="black" fill="white" />
<text x="600" y="900" fill="black" font-size="20" dominant-baseline="central" text-anchor="middle">y<tspan dy="5" font-size="15">8</tspan></text>
</svg>
