<svg width="1000" height="800" version="1.1" xmlns="http://www.w3.org/2000/svg" xmlns:xlink="http://www.w3.org/1999/xlink">
<rect width="100%" height="100%" fill="white" />
<defs>
  <marker id="arrow" markerWidth="12" markerHeight="8"
          refX="11" refY="4" orient="auto">
    <path d="M 0 0 L 12 4 L 0 8 L 4 4 z" fill="black" />
  </marker>
  <marker id="sarrow" markerWidth="12" markerHeight="8"
          refX="1" refY="4" orient="auto">
    <path d="M 0 4 L 12 0 L 8 5 L 12 8 z" fill="black" />
  </marker>
  <marker id="arr" markerWidth="6" markerHeight="6"
          refX="5.5" refY="3" orient="auto">
    <path d="M 0 0 L 6 3 L 0 6 L 2 3 z" fill="black" />
  </marker>
  <marker id="sarr" markerWidth="6" markerHeight="6"
          refX="0.5" refY="3" orient="auto">
    <path d="M 0 3 L 6 0 L 4 3 L 6 6 z" fill="black" />
  </marker>
</defs>
<path d="M 270 400 L 221.213203435596 300" stroke-width="2" stroke="black" marker-end="url(#arrow)" />
<path id="L1" d="M 221.213203435596 300 L 270 400" stroke-width="0" stroke="none" fill="none" />
<path d="M 270 400 L 221.213203435596 400" stroke-width="2" stroke="black" marker-end="url(#arrow)" />
<path id="L2" d="M 221.213203435596 400 L 270 400" stroke-width="0" stroke="none" fill="none" />
<path d="M 270 400 L 221.213203435596 500" stroke-width="2" stroke="black" marker-end="url(#arrow)" />
<path id="L3" d="M 221.213203435596 500 L 270 400" stroke-width="0" stroke="none" fill="none" />
<path d="M 450 320 L 300 221.213203435596" stroke-width="2" stroke="black" marker-end="url(#arrow)" />
<path id="L4" d="M 300 221.213203435596 L 450 320" stroke-width="0" stroke="none" fill="none" />
<path d="M 450 320 L 400 221.213203435596" stroke-width="2" stroke="black" marker-end="url(#arrow)" />
<path id="L5" d="M 400 221.213203435596 L 450 320" stroke-width="0" stroke="none" fill="none" />
<text font-size="20" text-anchor="middle">
<textPath xlink:href="#L5" startOffset="50%">a</textPath>
</text>
<path id="L6" d="M 450 320 L 500 221.213203435596" stroke-width="2" stroke="black" marker-end="url(#arrow)" />
<text font-size="20" text-anchor="middle">
<textPath xlink:href="#L6" startOffset="50%">b</textPath>
</text>
<path id="L7" d="M 450 320 L 600 221.213203435596" stroke-width="2" stroke="black" marker-end="url(#arrow)" />
<text font-size="20" text-anchor="middle">
<textPath xlink:href="#L7" startOffset="50%">c</textPath>
</text>
<path id="L8" d="M 680 450 L 778.786796564404 300" stroke-width="2" stroke="black" marker-end="url(#arrow)" />
<text font-size="20" text-anchor="middle">
<textPath xlink:href="#L8" startOffset="50%">c</textPath>
</text>
<path id="L9" d="M 680 450 L 778.786796564404 400" stroke-width="2" stroke="black" marker-end="url(#arrow)" />
<text font-size="20" text-anchor="middle">
<textPath xlink:href="#L9" startOffset="50%">b</textPath>
</text>
<path id="L10" d="M 680 450 L 778.786796564404 500" stroke-width="2" stroke="black" marker-end="url(#arrow)" />
<text font-size="20" text-anchor="middle">
<textPath xlink:href="#L10" startOffset="50%">a</textPath>
</text>
<path id="L11" d="M 680 450 L 778.786796564404 600" stroke-width="2" stroke="black" marker-end="url(#arrow)" />
<path id="L12" d="M 330 400 L 420 350" stroke-width="2" stroke="black" marker-end="url(#arrow)" />
<path id="L13" d="M 330 400 L 620 450" stroke-width="2" stroke="black" marker-end="url(#arrow)" />
<path id="L14" d="M 471.213203435596 371.213203435596 L 628.786796564404 428.786796564404" stroke-width="2" stroke="black" marker-end="url(#arrow)" />
<path d="M 821.213203435596 600 Q 1210 -160 300 178.786796564404" stroke-width="2" stroke="black" fill="none" marker-start="url(#sarrow)" marker-end="url(#arrow)" />
<path id="L15" d="M 300 178.786796564404 Q 1210 -160 821.213203435596 600" stroke-width="0" stroke="none" fill="none" />
<path d="M 600 178.786796564404 Q 500 70 400 178.786796564404" stroke-width="2" stroke="black" fill="none" marker-start="url(#sarrow)" marker-end="url(#arrow)" />
<path id="L16" d="M 400 178.786796564404 Q 500 70 600 178.786796564404" stroke-width="0" stroke="none" fill="none" />
<path d="M 821.213203435596 500 Q 1120 -70 400 178.786796564404" stroke-width="2" stroke="black" fill="none" marker-start="url(#sarrow)" marker-end="url(#arrow)" />
<path id="L17" d="M 400 178.786796564404 Q 1120 -70 821.213203435596 500" stroke-width="0" stroke="none" fill="none" />
<path d="M 821.213203435596 400 Q 1030 20 500 178.786796564404" stroke-width="2" stroke="black" fill="none" marker-start="url(#sarrow)" marker-end="url(#arrow)" />
<path id="L18" d="M 500 178.786796564404 Q 1030 20 821.213203435596 400" stroke-width="0" stroke="none" fill="none" />
<path d="M 821.213203435596 300 Q 940 110 600 178.786796564404" stroke-width="2" stroke="black" fill="none" marker-start="url(#sarrow)" marker-end="url(#arrow)" />
<path id="L19" d="M 600 178.786796564404 Q 940 110 821.213203435596 300" stroke-width="0" stroke="none" fill="none" />
<path id="L20" d="M 821.213203435596 500 Q 930 400 821.213203435596 300" stroke-width="2" stroke="black" fill="none" marker-start="url(#sarrow)" marker-end="url(#arrow)" />
<circle cx="300" cy="400" r="30" stroke-width="2" stroke="black" fill="white"/>
<text x="300" y="400" fill="black" font-size="20" dominant-baseline="central" text-anchor="middle">ind<tspan dy="5" font-size="15">60</tspan></text>
<rect width="42.4264068711929" height="42.4264068711929" x="178.786796564404" y="278.786796564404" stroke-width="2" stroke="black" fill="white" />
<text x="200" y="300" fill="black" font-size="20" dominant-baseline="central" text-anchor="middle">x<tspan dy="5" font-size="15">1</tspan></text>
<rect width="42.4264068711929" height="42.4264068711929" x="178.786796564404" y="378.786796564404" stroke-width="2" stroke="black" fill="white" />
<text x="200" y="400" fill="black" font-size="20" dominant-baseline="central" text-anchor="middle">x<tspan dy="5" font-size="15">2</tspan></text>
<rect width="42.4264068711929" height="42.4264068711929" x="178.786796564404" y="478.786796564404" stroke-width="2" stroke="black" fill="white" />
<text x="200" y="500" fill="black" font-size="20" dominant-baseline="central" text-anchor="middle">x<tspan dy="5" font-size="15">3</tspan></text>
<circle cx="450" cy="350" r="30" stroke-width="2" stroke="black" fill="white"/>
<text x="450" y="350" fill="black" font-size="20" dominant-baseline="central" text-anchor="middle">dem<tspan dy="5" font-size="15">60</tspan></text>
<rect width="42.4264068711929" height="42.4264068711929" x="278.786796564404" y="178.786796564404" stroke-width="2" stroke="black" fill="white" />
<text x="300" y="200" fill="black" font-size="20" dominant-baseline="central" text-anchor="middle">y<tspan dy="5" font-size="15">1</tspan></text>
<rect width="42.4264068711929" height="42.4264068711929" x="378.786796564404" y="178.786796564404" stroke-width="2" stroke="black" fill="white" />
<text x="400" y="200" fill="black" font-size="20" dominant-baseline="central" text-anchor="middle">y<tspan dy="5" font-size="15">2</tspan></text>
<rect width="42.4264068711929" height="42.4264068711929" x="478.786796564404" y="178.786796564404" stroke-width="2" stroke="black" fill="white" />
<text x="500" y="200" fill="black" font-size="20" dominant-baseline="central" text-anchor="middle">y<tspan dy="5" font-size="15">3</tspan></text>
<rect width="42.4264068711929" height="42.4264068711929" x="578.786796564404" y="178.786796564404" stroke-width="2" stroke="black" fill="white" />
<text x="600" y="200" fill="black" font-size="20" dominant-baseline="central" text-anchor="middle">y<tspan dy="5" font-size="15">4</tspan></text>
<circle cx="650" cy="450" r="30" stroke-width="2" stroke="black" fill="white"/>
<text x="650" y="450" fill="black" font-size="20" dominant-baseline="central" text-anchor="middle">dem<tspan dy="5" font-size="15">65</tspan></text>
<rect width="42.4264068711929" height="42.4264068711929" x="778.786796564404" y="278.786796564404" stroke-width="2" stroke="black" fill="white" />
<text x="800" y="300" fill="black" font-size="20" dominant-baseline="central" text-anchor="middle">y<tspan dy="5" font-size="15">8</tspan></text>
<rect width="42.4264068711929" height="42.4264068711929" x="778.786796564404" y="378.786796564404" stroke-width="2" stroke="black" fill="white" />
<text x="800" y="400" fill="black" font-size="20" dominant-baseline="central" text-anchor="middle">y<tspan dy="5" font-size="15">7</tspan></text>
<rect width="42.4264068711929" height="42.4264068711929" x="778.786796564404" y="478.786796564404" stroke-width="2" stroke="black" fill="white" />
<text x="800" y="500" fill="black" font-size="20" dominant-baseline="central" text-anchor="middle">y<tspan dy="5" font-size="15">6</tspan></text>
<rect width="42.4264068711929" height="42.4264068711929" x="778.786796564404" y="578.786796564404" stroke-width="2" stroke="black" fill="white" />
<text x="800" y="600" fill="black" font-size="20" dominant-baseline="central" text-anchor="middle">y<tspan dy="5" font-size="15">5</tspan></text>
</svg>
